PathFileType	4	(X/Y/Z)	/home/lloyd/projects/artisynth/mainroot/artisynth_core/src/artisynth/demos/tutorial/data/offMarkers.trc
DataRate	CameraRate	NumFrames	NumMarkers	Units	OrigDataRate	OrigDataStartFrame	OrigNumFrames
50	50	40	7	mm	50	1	201
Frame#	Time	mkr8			mkr4			mkr6			mkr5			mkr7			mkr0			mkr2		
		X1	Y1	Z1	X2	Y2	Z2	X3	Y3	Z3	X4	Y4	Z4	X5	Y5	Z5	X6	Y6	Z6	X7	Y7	Z7

1	 0.0000000	 0.0036713	 0.0045048	 1.2754140	-0.0495620	-0.0182569	 1.1621950	 0.0555504	-0.0220182	 1.1983000	-0.0707430	 0.0181577	 0.5464050	 0.1115620	 0.0236301	 0.5320520	-0.1294250	 0.0151680	 0.3500916	 0.1076400	-0.0060904	 0.3632107
2	 0.0200000	 0.0030432	 0.0045048	 1.2754171	-0.0500848	-0.0182569	 1.1621487	 0.0549940	-0.0220182	 1.1983514	-0.0707430	 0.0181577	 0.5464050	 0.1115620	 0.0236301	 0.5320520	-0.1294250	 0.0151680	 0.3500916	 0.1076400	-0.0060904	 0.3632107
3	 0.0400000	 0.0011929	 0.0045048	 1.2754229	-0.0516246	-0.0182569	 1.1620094	 0.0533546	-0.0220182	 1.1984998	-0.0707430	 0.0181577	 0.5464050	 0.1115620	 0.0236301	 0.5320520	-0.1294250	 0.0151680	 0.3500916	 0.1076400	-0.0060904	 0.3632107
4	 0.0600000	-0.0018287	 0.0045048	 1.2754215	-0.0541383	-0.0182569	 1.1617728	 0.0506767	-0.0220182	 1.1987325	-0.0707430	 0.0181577	 0.5464050	 0.1115620	 0.0236301	 0.5320520	-0.1294250	 0.0151680	 0.3500916	 0.1076400	-0.0060904	 0.3632107
5	 0.0800000	-0.0059706	 0.0045048	 1.2753976	-0.0575822	-0.0182569	 1.1614302	 0.0470041	-0.0220182	 1.1990320	-0.0707430	 0.0181577	 0.5464050	 0.1115620	 0.0236301	 0.5320520	-0.1294250	 0.0151680	 0.3500916	 0.1076400	-0.0060904	 0.3632107
6	 0.1000000	-0.0111815	 0.0045048	 1.2753314	-0.0619123	-0.0182569	 1.1609692	 0.0423807	-0.0220182	 1.1993769	-0.0707430	 0.0181577	 0.5464050	 0.1115620	 0.0236301	 0.5320520	-0.1294250	 0.0151680	 0.3500916	 0.1076400	-0.0060904	 0.3632107
7	 0.1200000	-0.0174100	 0.0045048	 1.2751996	-0.0670838	-0.0182569	 1.1603743	 0.0368505	-0.0220182	 1.1997423	-0.0707430	 0.0181577	 0.5464050	 0.1115620	 0.0236301	 0.5320520	-0.1294250	 0.0151680	 0.3500916	 0.1076400	-0.0060904	 0.3632107
8	 0.1400000	-0.0246040	 0.0045048	 1.2749757	-0.0730514	-0.0182569	 1.1596276	 0.0304575	-0.0220182	 1.2001009	-0.0707430	 0.0181577	 0.5464050	 0.1115620	 0.0236301	 0.5320520	-0.1294250	 0.0151680	 0.3500916	 0.1076400	-0.0060904	 0.3632107
9	 0.1600000	-0.0327108	 0.0045048	 1.2746314	-0.0797691	-0.0182569	 1.1587097	 0.0232462	-0.0220182	 1.2004235	-0.0707430	 0.0181577	 0.5464050	 0.1115620	 0.0236301	 0.5320520	-0.1294250	 0.0151680	 0.3500916	 0.1076400	-0.0060904	 0.3632107
10	 0.1800000	-0.0416771	 0.0045048	 1.2741369	-0.0871900	-0.0182569	 1.1575998	 0.0152616	-0.0220182	 1.2006795	-0.0707430	 0.0181577	 0.5464050	 0.1115620	 0.0236301	 0.5320520	-0.1294250	 0.0151680	 0.3500916	 0.1076400	-0.0060904	 0.3632107
11	 0.2000000	-0.0514484	 0.0045048	 1.2734617	-0.0952666	-0.0182569	 1.1562768	 0.0065495	-0.0220182	 1.2008376	-0.0707430	 0.0181577	 0.5464050	 0.1115620	 0.0236301	 0.5320520	-0.1294250	 0.0151680	 0.3500916	 0.1076400	-0.0060904	 0.3632107
12	 0.2200000	-0.0619696	 0.0045048	 1.2725751	-0.1039506	-0.0182569	 1.1547196	-0.0028435	-0.0220182	 1.2008666	-0.0707430	 0.0181577	 0.5464050	 0.1115620	 0.0236301	 0.5320520	-0.1294250	 0.0151680	 0.3500916	 0.1076400	-0.0060904	 0.3632107
13	 0.2400000	-0.0731845	 0.0045048	 1.2714474	-0.1131930	-0.0182569	 1.1529077	-0.0128700	-0.0220182	 1.2007355	-0.0707430	 0.0181577	 0.5464050	 0.1115620	 0.0236301	 0.5320520	-0.1294250	 0.0151680	 0.3500916	 0.1076400	-0.0060904	 0.3632107
14	 0.2600000	-0.0850358	 0.0045048	 1.2700496	-0.1229437	-0.0182569	 1.1508216	-0.0234814	-0.0220182	 1.2004143	-0.0707430	 0.0181577	 0.5464050	 0.1115620	 0.0236301	 0.5320520	-0.1294250	 0.0151680	 0.3500916	 0.1076400	-0.0060904	 0.3632107
15	 0.2800000	-0.0974653	 0.0045048	 1.2683547	-0.1331524	-0.0182569	 1.1484433	-0.0346283	-0.0220182	 1.1998747	-0.0707430	 0.0181577	 0.5464050	 0.1115620	 0.0236301	 0.5320520	-0.1294250	 0.0151680	 0.3500916	 0.1076400	-0.0060904	 0.3632107
16	 0.3000000	-0.1104139	 0.0045048	 1.2663380	-0.1437678	-0.0182569	 1.1457567	-0.0462601	-0.0220182	 1.1990899	-0.0707430	 0.0181577	 0.5464050	 0.1115620	 0.0236301	 0.5320520	-0.1294250	 0.0151680	 0.3500916	 0.1076400	-0.0060904	 0.3632107
17	 0.3200000	-0.1238216	 0.0045048	 1.2639772	-0.1547384	-0.0182569	 1.1427482	-0.0583254	-0.0220182	 1.1980359	-0.0707430	 0.0181577	 0.5464050	 0.1115620	 0.0236301	 0.5320520	-0.1294250	 0.0151680	 0.3500916	 0.1076400	-0.0060904	 0.3632107
18	 0.3400000	-0.1376277	 0.0045048	 1.2612535	-0.1660122	-0.0182569	 1.1394067	-0.0707720	-0.0220182	 1.1966909	-0.0707430	 0.0181577	 0.5464050	 0.1115620	 0.0236301	 0.5320520	-0.1294250	 0.0151680	 0.3500916	 0.1076400	-0.0060904	 0.3632107
19	 0.3600000	-0.1517711	 0.0045048	 1.2581513	-0.1775371	-0.0182569	 1.1357240	-0.0835467	-0.0220182	 1.1950367	-0.0707430	 0.0181577	 0.5464050	 0.1115620	 0.0236301	 0.5320520	-0.1294250	 0.0151680	 0.3500916	 0.1076400	-0.0060904	 0.3632107
20	 0.3800000	-0.1661903	 0.0045048	 1.2546590	-0.1892610	-0.0182569	 1.1316953	-0.0965961	-0.0220182	 1.1930581	-0.0707430	 0.0181577	 0.5464050	 0.1115620	 0.0236301	 0.5320520	-0.1294250	 0.0151680	 0.3500916	 0.1076400	-0.0060904	 0.3632107
21	 0.4000000	-0.1808237	 0.0045048	 1.2507690	-0.2011322	-0.0182569	 1.1273191	-0.1098661	-0.0220182	 1.1907437	-0.0707430	 0.0181577	 0.5464050	 0.1115620	 0.0236301	 0.5320520	-0.1294250	 0.0151680	 0.3500916	 0.1076400	-0.0060904	 0.3632107
22	 0.4200000	-0.1956100	 0.0045048	 1.2464784	-0.2130994	-0.0182569	 1.1225976	-0.1233026	-0.0220182	 1.1880860	-0.0707430	 0.0181577	 0.5464050	 0.1115620	 0.0236301	 0.5320520	-0.1294250	 0.0151680	 0.3500916	 0.1076400	-0.0060904	 0.3632107
23	 0.4400000	-0.2104882	 0.0045048	 1.2417884	-0.2251119	-0.0182569	 1.1175367	-0.1368516	-0.0220182	 1.1850815	-0.0707430	 0.0181577	 0.5464050	 0.1115620	 0.0236301	 0.5320520	-0.1294250	 0.0151680	 0.3500916	 0.1076400	-0.0060904	 0.3632107
24	 0.4600000	-0.2253981	 0.0045048	 1.2367050	-0.2371202	-0.0182569	 1.1121461	-0.1504591	-0.0220182	 1.1817309	-0.0707430	 0.0181577	 0.5464050	 0.1115620	 0.0236301	 0.5320520	-0.1294250	 0.0151680	 0.3500916	 0.1076400	-0.0060904	 0.3632107
25	 0.4800000	-0.2402806	 0.0045048	 1.2312391	-0.2490759	-0.0182569	 1.1064394	-0.1640719	-0.0220182	 1.1780391	-0.0707430	 0.0181577	 0.5464050	 0.1115620	 0.0236301	 0.5320520	-0.1294250	 0.0151680	 0.3500916	 0.1076400	-0.0060904	 0.3632107
26	 0.5000000	-0.2550779	 0.0045048	 1.2254061	-0.2609320	-0.0182569	 1.1004339	-0.1776376	-0.0220182	 1.1740153	-0.0707430	 0.0181577	 0.5464050	 0.1115620	 0.0236301	 0.5320520	-0.1294250	 0.0151680	 0.3500916	 0.1076400	-0.0060904	 0.3632107
27	 0.5200000	-0.2697338	 0.0045048	 1.2192263	-0.2726435	-0.0182569	 1.0941509	-0.1911048	-0.0220182	 1.1696733	-0.0707430	 0.0181577	 0.5464050	 0.1115620	 0.0236301	 0.5320520	-0.1294250	 0.0151680	 0.3500916	 0.1076400	-0.0060904	 0.3632107
28	 0.5400000	-0.2841938	 0.0045048	 1.2127246	-0.2841670	-0.0182569	 1.0876153	-0.2044234	-0.0220182	 1.1650308	-0.0707430	 0.0181577	 0.5464050	 0.1115620	 0.0236301	 0.5320520	-0.1294250	 0.0151680	 0.3500916	 0.1076400	-0.0060904	 0.3632107
29	 0.5600000	-0.2984059	 0.0045048	 1.2059302	-0.2954614	-0.0182569	 1.0808556	-0.2175450	-0.0220182	 1.1601097	-0.0707430	 0.0181577	 0.5464050	 0.1115620	 0.0236301	 0.5320520	-0.1294250	 0.0151680	 0.3500916	 0.1076400	-0.0060904	 0.3632107
30	 0.5800000	-0.3123202	 0.0045048	 1.1988770	-0.3064880	-0.0182569	 1.0739037	-0.2304226	-0.0220182	 1.1549362	-0.0707430	 0.0181577	 0.5464050	 0.1115620	 0.0236301	 0.5320520	-0.1294250	 0.0151680	 0.3500916	 0.1076400	-0.0060904	 0.3632107
31	 0.6000000	-0.3258896	 0.0045048	 1.1916025	-0.3172102	-0.0182569	 1.0667947	-0.2430117	-0.0220182	 1.1495399	-0.0707430	 0.0181577	 0.5464050	 0.1115620	 0.0236301	 0.5320520	-0.1294250	 0.0151680	 0.3500916	 0.1076400	-0.0060904	 0.3632107
32	 0.6200000	-0.3390693	 0.0045048	 1.1841486	-0.3275944	-0.0182569	 1.0595666	-0.2552694	-0.0220182	 1.1439543	-0.0707430	 0.0181577	 0.5464050	 0.1115620	 0.0236301	 0.5320520	-0.1294250	 0.0151680	 0.3500916	 0.1076400	-0.0060904	 0.3632107
33	 0.6400000	-0.3518179	 0.0045048	 1.1765602	-0.3376094	-0.0182569	 1.0522604	-0.2671553	-0.0220182	 1.1382163	-0.0707430	 0.0181577	 0.5464050	 0.1115620	 0.0236301	 0.5320520	-0.1294250	 0.0151680	 0.3500916	 0.1076400	-0.0060904	 0.3632107
34	 0.6600000	-0.3640966	 0.0045048	 1.1688860	-0.3472268	-0.0182569	 1.0449193	-0.2786315	-0.0220182	 1.1323657	-0.0707430	 0.0181577	 0.5464050	 0.1115620	 0.0236301	 0.5320520	-0.1294250	 0.0151680	 0.3500916	 0.1076400	-0.0060904	 0.3632107
35	 0.6800000	-0.3758694	 0.0045048	 1.1611771	-0.3564207	-0.0182569	 1.0375888	-0.2896621	-0.0220182	 1.1264453	-0.0707430	 0.0181577	 0.5464050	 0.1115620	 0.0236301	 0.5320520	-0.1294250	 0.0151680	 0.3500916	 0.1076400	-0.0060904	 0.3632107
36	 0.7000000	-0.3871037	 0.0045048	 1.1534874	-0.3651679	-0.0182569	 1.0303162	-0.3002138	-0.0220182	 1.1205002	-0.0707430	 0.0181577	 0.5464050	 0.1115620	 0.0236301	 0.5320520	-0.1294250	 0.0151680	 0.3500916	 0.1076400	-0.0060904	 0.3632107
37	 0.7200000	-0.3977692	 0.0045048	 1.1458729	-0.3734478	-0.0182569	 1.0231505	-0.3102556	-0.0220182	 1.1145777	-0.0707430	 0.0181577	 0.5464050	 0.1115620	 0.0236301	 0.5320520	-0.1294250	 0.0151680	 0.3500916	 0.1076400	-0.0060904	 0.3632107
38	 0.7400000	-0.4078385	 0.0045048	 1.1383914	-0.3812422	-0.0182569	 1.0161418	-0.3197589	-0.0220182	 1.1087268	-0.0707430	 0.0181577	 0.5464050	 0.1115620	 0.0236301	 0.5320520	-0.1294250	 0.0151680	 0.3500916	 0.1076400	-0.0060904	 0.3632107
39	 0.7600000	-0.4172868	 0.0045048	 1.1311019	-0.3885348	-0.0182569	 1.0093413	-0.3286968	-0.0220182	 1.1029981	-0.0707430	 0.0181577	 0.5464050	 0.1115620	 0.0236301	 0.5320520	-0.1294250	 0.0151680	 0.3500916	 0.1076400	-0.0060904	 0.3632107
40	 0.7800000	-0.4260914	 0.0045048	 1.1240645	-0.3953116	-0.0182569	 1.0028007	-0.3370448	-0.0220182	 1.0974430	-0.0707430	 0.0181577	 0.5464050	 0.1115620	 0.0236301	 0.5320520	-0.1294250	 0.0151680	 0.3500916	 0.1076400	-0.0060904	 0.3632107
